# xmcd CD database file
#
# Track frame offsets:
#	150
#	19017
#	33805
#	49535
#	62237
#	74782
#	90937
#	108602
#	121870
#	136212
#	152670
#	163775
#	176412
#	193607
#	205825
#	220630
#	236130
#	245115
#	251917
#	254635
#	261615
#	267612
#	275887
#	281295
#	289837
#	299642
#
# Disc length: 4088 seconds
#
# Revision: 1
# Processed by: cddbd v1.4PL0 Copyright (c) Steve Scherf et al.
# Submitted via: CDex 1.50beta9
#
DISCID=a40ff61a
DTITLE=Various Artist - CDX Vol 70 Nov 1993
DYEAR=1993
DGENRE=Country
TTITLE0=Michael Martin Murphy and Marty Stuart - Big Iron
TTITLE1=Conway Twitty - Don't It Make You Lonely
TTITLE2=Chris Ledoux - For Your Love
TTITLE3=Charlie Floyd - Good Girls Go To Heaven
TTITLE4=Rick Vincent - Hello, She Lied
TTITLE5=Joe Walsh and Steve Earle - Honey Don't
TTITLE6=George Strait - I'd Like To Have That One Back
TTITLE7=John Anderson - I've Got It Made
TTITLE8=Martina McBride - Life #9
TTITLE9=Diamond Rio - Sawmill Road
TTITLE10=Parton/Wynette/Lynn - Silver Threads and Golden Needles
TTITLE11=Clint Black - State Of Mind
TTITLE12=Vince Vance and The Valiants - All I Want For Christmas Is You
TTITLE13=Charlie Chase - Christmas Is For Kids
TTITLE14=Billy Walker - He Only Needs It For The Weekend
TTITLE15=John Wesley Ryles - Let Him Ask In Faith
TTITLE16=RCA Promo #4
TTITLE17=Clint Black Album Track Intro - No Time To Kill
TTITLE18=Clint Black Album Track Intro - Thinking Again
TTITLE19=Clint Black Album Track Intro - A Good Run of Bad Luck
TTITLE20=Clint Black Album Track Intro - State Of Mind
TTITLE21=Clint Black Album Track Intro - A Bad Goodbye
TTITLE22=Clint Black Album Track Intro - Half The Man
TTITLE23=Clint Black Album Track Intro - I'll Take Texas
TTITLE24=Clint Black Album Track Intro - Happiness Alone
TTITLE25=Clint Black Album Track Intro - Tuckered Out
EXTD=YEAR: 1993
EXTT0=
EXTT1=
EXTT2=
EXTT3=
EXTT4=
EXTT5=
EXTT6=
EXTT7=
EXTT8=
EXTT9=
EXTT10=
EXTT11=
EXTT12=
EXTT13=
EXTT14=
EXTT15=
EXTT16=
EXTT17=
EXTT18=
EXTT19=
EXTT20=
EXTT21=
EXTT22=
EXTT23=
EXTT24=
EXTT25=
PLAYORDER=
